<svg width="32" height="32" viewBox="0 0 32 32" fill="none" xmlns="http://www.w3.org/2000/svg">
<mask id="mask0_2249_2526" style="mask-type:alpha" maskUnits="userSpaceOnUse" x="0" y="0" width="32" height="32">
<rect width="32" height="32" fill="#D9D9D9"/>
</mask>
<g mask="url(#mask0_2249_2526)">
<path d="M14.667 12.6667C15.2294 12.6667 15.7033 12.4739 16.0887 12.0883C16.4742 11.703 16.667 11.2291 16.667 10.6667C16.667 10.1042 16.4742 9.63034 16.0887 9.24501C15.7033 8.85945 15.2294 8.66668 14.667 8.66668C14.1045 8.66668 13.6307 8.85945 13.2453 9.24501C12.8598 9.63034 12.667 10.1042 12.667 10.6667C12.667 11.2291 12.8598 11.703 13.2453 12.0883C13.6307 12.4739 14.1045 12.6667 14.667 12.6667ZM14.6927 18C15.4362 18 16.1529 17.8616 16.8427 17.5847C17.5324 17.3078 18.1568 16.9087 18.7157 16.3873C18.0234 16.03 17.3392 15.765 16.663 15.5923C15.987 15.4197 15.3302 15.3333 14.6927 15.3333C13.9011 15.3333 13.146 15.4239 12.4273 15.605C11.7084 15.7863 11.114 16.0471 10.644 16.3873C11.1858 16.9087 11.8059 17.3078 12.5043 17.5847C13.2025 17.8616 13.932 18 14.6927 18ZM28.2363 27.8717L21.226 20.8617C20.2464 21.6581 19.2365 22.2692 18.1963 22.695C17.1563 23.1206 15.9799 23.3333 14.667 23.3333C11.8772 23.3333 9.5131 22.3641 7.57466 20.4257C5.63621 18.4872 4.66699 16.1231 4.66699 13.3333C4.66699 10.5436 5.63621 8.17945 7.57466 6.24101C9.5131 4.30257 11.8772 3.33334 14.667 3.33334C17.4568 3.33334 19.8209 4.30257 21.7593 6.24101C23.6978 8.17945 24.667 10.5436 24.667 13.3333C24.667 14.6462 24.4542 15.827 24.0287 16.8757C23.6029 17.9243 22.9918 18.9385 22.1953 19.918L29.1797 26.9027L28.2363 27.8717ZM14.667 22C17.0601 22 19.1029 21.1539 20.7953 19.4617C22.4875 17.7692 23.3337 15.7265 23.3337 13.3333C23.3337 10.9402 22.4875 8.89746 20.7953 7.20501C19.1029 5.51279 17.0601 4.66668 14.667 4.66668C12.2739 4.66668 10.2311 5.51279 8.53866 7.20501C6.84644 8.89746 6.00033 10.9402 6.00033 13.3333C6.00033 15.7265 6.84644 17.7692 8.53866 19.4617C10.2311 21.1539 12.2739 22 14.667 22Z" fill="#014C80"/>
</g>
</svg>
