<svg width="32" height="32" viewBox="0 0 32 32" fill="none" xmlns="http://www.w3.org/2000/svg">
<mask id="mask0_2249_2506" style="mask-type:alpha" maskUnits="userSpaceOnUse" x="0" y="0" width="32" height="32">
<rect width="32" height="32" fill="#D9D9D9"/>
</mask>
<g mask="url(#mask0_2249_2506)">
<path d="M3.02534 25.6923C2.56556 25.6923 2.16856 25.5252 1.83434 25.191C1.50012 24.8568 1.33301 24.4598 1.33301 24H6.15367C5.5399 24 5.02745 23.7945 4.61634 23.3833C4.20523 22.9722 3.99967 22.4598 3.99967 21.846V7.48734C3.99967 6.87357 4.20523 6.36112 4.61634 5.95001C5.02745 5.5389 5.5399 5.33334 6.15367 5.33334H25.8457C26.4595 5.33334 26.9719 5.5389 27.383 5.95001C27.7941 6.36112 27.9997 6.87357 27.9997 7.48734V21.846C27.9997 22.4598 27.7941 22.9722 27.383 23.3833C26.9719 23.7945 26.4595 24 25.8457 24H30.6663C30.6663 24.4598 30.4992 24.8568 30.165 25.191C29.8308 25.5252 29.4338 25.6923 28.974 25.6923H3.02534ZM15.9997 25.0257C16.2237 25.0257 16.4165 24.9449 16.578 24.7833C16.7396 24.6218 16.8203 24.429 16.8203 24.205C16.8203 23.9812 16.7396 23.7886 16.578 23.627C16.4165 23.4655 16.2237 23.3847 15.9997 23.3847C15.7757 23.3847 15.5829 23.4655 15.4213 23.627C15.2598 23.7886 15.179 23.9812 15.179 24.205C15.179 24.429 15.2598 24.6218 15.4213 24.7833C15.5829 24.9449 15.7757 25.0257 15.9997 25.0257ZM6.15367 22.6667H25.8457C26.051 22.6667 26.2391 22.5812 26.41 22.4103C26.5809 22.2395 26.6663 22.0513 26.6663 21.846V7.48734C26.6663 7.28201 26.5809 7.0939 26.41 6.92301C26.2391 6.75212 26.051 6.66668 25.8457 6.66668H6.15367C5.94834 6.66668 5.76023 6.75212 5.58934 6.92301C5.41845 7.0939 5.33301 7.28201 5.33301 7.48734V21.846C5.33301 22.0513 5.41845 22.2395 5.58934 22.4103C5.76023 22.5812 5.94834 22.6667 6.15367 22.6667Z" fill="#014C80"/>
</g>
</svg>
